<?xml version="1.0" encoding="UTF-8"?>
<!DOCTYPE svg PUBLIC "-//W3C//DTD SVG 1.1//EN" "http://www.w3.org/Graphics/SVG/1.1/DTD/svg11.dtd">
<svg version="1.1" xmlns="http://www.w3.org/2000/svg" xmlns:xlink="http://www.w3.org/1999/xlink" x="0px" y="0px" width="128" height="128" viewBox="0, 0, 128, 128">
  <g id="Background">
    <rect x="0" y="0" width="128" height="128" fill="#000000" fill-opacity="0"/>
  </g>
  <g id="Background"/>
  <g id="Background">
    <path d="M18.093,6 L109.905,6 C116.559,6 122,11.439 122,18.093 L122,109.907 C122,116.561 116.559,122 109.905,122 L18.093,122 C11.439,122 6,116.561 6,109.907 L6,18.093 C6,11.439 11.439,6 18.093,6" fill="#727272"/>
    <path d="M100.927,46.692 C100.927,46.007 100.712,45.455 100.284,45.039 C99.849,44.618 99.192,44.409 98.302,44.409 L94.461,44.409 L94.461,49.126 L98.302,49.126 C99.192,49.126 99.849,48.897 100.284,48.442 C100.712,47.984 100.927,47.404 100.927,46.692 z M100.471,36.727 C100.471,36.065 100.237,35.545 99.767,35.164 C99.296,34.786 98.699,34.594 97.959,34.594 L94.461,34.594 L94.461,38.776 L97.959,38.776 C98.773,38.776 99.393,38.604 99.826,38.248 C100.256,37.892 100.471,37.384 100.471,36.727 z M104.732,41.367 C105.494,41.594 106.129,41.928 106.636,42.376 C107.142,42.819 107.555,43.307 107.869,43.837 C108.19,44.372 108.409,44.929 108.536,45.514 C108.663,46.097 108.728,46.642 108.728,47.148 C108.728,48.34 108.494,49.423 108.025,50.401 C107.555,51.377 106.915,52.213 106.102,52.912 C105.29,53.61 104.334,54.15 103.229,54.528 C102.129,54.907 100.927,55.1 99.635,55.1 L86.815,55.1 L86.815,28.62 L98.758,28.62 C100.384,28.62 101.795,28.807 103,29.173 C104.207,29.543 105.203,30.059 105.987,30.735 C106.773,31.406 107.358,32.205 107.737,33.128 C108.12,34.054 108.307,35.077 108.307,36.192 C108.307,36.65 108.257,37.128 108.157,37.641 C108.056,38.147 107.869,38.631 107.605,39.102 C107.339,39.572 106.97,40.011 106.504,40.417 C106.034,40.819 105.444,41.138 104.732,41.367" fill="#EBECEC"/>
    <path d="M74.425,99.897 C73.617,102.225 72.32,103.933 70.548,105.011 C68.772,106.089 66.629,106.628 64.118,106.628 C62.291,106.628 60.707,106.382 59.363,105.889 C58.016,105.391 56.898,104.697 55.993,103.793 C55.094,102.892 54.422,101.802 53.979,100.522 C53.536,99.243 53.312,97.814 53.312,96.243 L53.312,89.891 C53.312,88.52 53.536,87.21 53.979,85.953 C54.422,84.698 55.076,83.593 55.938,82.642 C56.802,81.693 57.879,80.934 59.171,80.377 C60.465,79.82 61.949,79.542 63.625,79.542 C66.388,79.542 68.68,80.108 70.507,81.236 C72.334,82.363 73.576,84.058 74.239,86.314 L67.809,88.863 C67.58,88.201 67.324,87.67 67.045,87.264 C66.766,86.858 66.47,86.548 66.154,86.333 C65.835,86.117 65.502,85.972 65.146,85.895 C64.789,85.816 64.446,85.781 64.118,85.781 C63.054,85.781 62.263,86.142 61.757,86.867 C61.25,87.588 60.998,88.457 60.998,89.47 L60.998,96.736 C60.998,97.727 61.218,98.595 61.665,99.345 C62.109,100.092 62.89,100.468 64.003,100.468 C64.817,100.468 65.556,100.239 66.228,99.783 C66.9,99.325 67.428,98.486 67.809,97.271 z" fill="#EBECEC"/>
    <path d="M30.597,79.874 C32.78,79.874 34.739,80.263 36.474,81.034 C38.214,81.811 39.498,83.072 40.338,84.82 L40.297,84.82 C40.831,85.885 41.156,87.058 41.269,88.342 C41.383,89.622 41.438,91.06 41.438,92.658 C41.438,94.484 41.388,96.069 41.288,97.413 C41.187,98.76 40.895,99.975 40.412,101.065 C39.982,102.056 39.411,102.892 38.699,103.577 C37.99,104.262 37.178,104.806 36.265,105.212 C35.351,105.618 34.365,105.911 33.3,106.089 C32.232,106.268 31.117,106.355 29.952,106.355 L19.261,106.355 L19.261,79.874 z M26.907,100.229 L29.761,100.229 C31.331,100.229 32.404,99.741 32.976,98.765 C33.547,97.787 33.83,96.475 33.83,94.827 L33.83,91.215 C33.83,89.46 33.506,88.163 32.862,87.314 C32.213,86.465 31.145,86.04 29.646,86.04 L26.907,86.04 z" fill="#EBECEC"/>
    <path d="M45.909,16.413 C61.698,16.413 74.498,29.215 74.498,45.002 C74.498,48.693 73.8,52.223 72.526,55.46 L84.395,73.974 L63.662,67.412 C58.783,71.281 52.619,73.591 45.909,73.591 C30.122,73.591 17.321,60.789 17.321,45.002 C17.321,29.215 30.122,16.413 45.909,16.413" fill="#EBEDED"/>
    <path d="M101.439,100.413 L93.451,100.413 L92.082,105.016 L84.052,105.016 L93.603,78.537 L101.476,78.537 L110.874,105.016 L102.887,105.016 z M97.329,87.058 L96.077,91.813 L95.351,94.481 L99.54,94.481 L98.74,91.626 L97.556,87.058 z" fill="#EBEDED"/>
    <path d="M49.64,50.409 L41.654,50.409 L40.283,55.013 L32.255,55.013 L41.804,28.533 L49.677,28.533 L59.076,55.013 L51.089,55.013 z M45.53,37.056 L44.28,41.81 L43.553,44.477 L47.741,44.477 L46.942,41.622 L45.759,37.056 z" fill="#727272"/>
  </g>
  <defs/>
</svg>
